<svg width="27" height="32" fill="none" xmlns="http://www.w3.org/2000/svg"><path fill-rule="evenodd" clip-rule="evenodd" d="M6.968 11.676c0-3.583 2.924-6.487 6.532-6.487s6.532 2.904 6.532 6.487c0 3.582-2.924 6.486-6.532 6.486s-6.532-2.904-6.532-6.486zM13.5 7.784c-2.165 0-3.92 1.742-3.92 3.892s1.755 3.892 3.92 3.892 3.92-1.743 3.92-3.892c0-2.15-1.755-3.892-3.92-3.892z" fill="#fff"/><path fill-rule="evenodd" clip-rule="evenodd" d="M2.101 10.166C2.578 4.421 7.413 0 13.218 0h.564c5.805 0 10.64 4.421 11.116 10.166a11.87 11.87 0 01-2.671 8.53L15.965 26.3a3.198 3.198 0 01-4.93 0l-6.262-7.605a11.87 11.87 0 01-2.672-8.529zm11.117-7.571c-4.445 0-8.147 3.385-8.512 7.784-.2 2.41.55 4.802 2.09 6.674l6.262 7.604a.573.573 0 00.884 0l6.262-7.604a9.288 9.288 0 002.09-6.674c-.365-4.399-4.067-7.784-8.512-7.784h-.564z" fill="#fff"/><path d="M5.959 24.364c.323-.64.06-1.42-.584-1.74a1.31 1.31 0 00-1.753.58L.138 30.122c-.203.403-.18.88.057 1.263A1.31 1.31 0 001.306 32h24.388c.452 0 .873-.233 1.11-.615.239-.383.26-.86.058-1.263l-3.484-6.918a1.31 1.31 0 00-1.753-.58c-.645.32-.907 1.1-.584 1.74l2.539 5.041H3.42l2.539-5.041z" fill="#fff"/></svg>