<svg width="53" height="31" fill="none" xmlns="http://www.w3.org/2000/svg"><path d="M50.759 30.952h-5.704c-2.158 0-2.807-1.747-6.677-5.617-3.378-3.257-4.805-3.663-5.661-3.663-1.18 0-1.505.324-1.505 1.954v5.13c0 1.387-.45 2.2-4.074 2.2A22.252 22.252 0 019.75 20.53a45.45 45.45 0 01-9-18.894c0-.856.324-1.63 1.955-1.63h5.7c1.466 0 1.993.653 2.568 2.158 2.768 8.147 7.49 15.23 9.406 15.23.735 0 1.055-.324 1.055-2.157v-8.39c-.242-3.827-2.275-4.152-2.275-5.535A1.407 1.407 0 0120.621.006h8.96c1.224 0 1.63.61 1.63 2.076v11.321c0 1.224.529 1.63.896 1.63.735 0 1.302-.406 2.647-1.75a46.91 46.91 0 007.005-11.65A2.455 2.455 0 0144.242.005h5.704c1.708 0 2.072.856 1.708 2.076a71.173 71.173 0 01-7.655 13.155c-.613.938-.86 1.427 0 2.525.567.856 2.565 2.526 3.91 4.113a25.353 25.353 0 014.804 6.677c.489 1.587-.328 2.4-1.954 2.4z" fill="#fff"/></svg>