<svg width="234" height="270" fill="none" xmlns="http://www.w3.org/2000/svg"><path d="M50.906 246.208v19.152H40.49V256H10.154a424.39 424.39 0 00.384-17.424c0-5.408-.128-11.216-.384-17.424h11.28v25.152h16.224v-25.152h11.28a429.555 429.555 0 00-.336 17.52c0 3.36.016 5.872.048 7.536h2.256zm44.59-14.976c-5.024-.16-9.904-.256-14.64-.288V256h-12v-25.056c-4.768.032-9.632.128-14.592.288v-10.08h41.232v10.08zm40.102-10.08a23.33 23.33 0 01-.48 1.2 16.82 16.82 0 00-.576 1.44 563.406 563.406 0 01-4.896 11.76 414.638 414.638 0 01-5.28 11.808c-1.792 3.84-4.416 6.912-7.872 9.216-3.424 2.336-7.744 3.456-12.96 3.36-.672-2.784-1.216-4.88-1.632-6.288a29.436 29.436 0 00-1.584-4.416c1.888.416 3.632.624 5.232.624 1.568 0 2.976-.208 4.223-.624-2.303-5.92-6.415-15.28-12.335-28.08h11.952l7.632 17.952 1.344-3.216c3.328-7.904 5.2-12.816 5.616-14.736h11.616zM168.411 256a218.63 218.63 0 00-2.448-6.864h-15.312l-2.4 6.864h-12.048l13.44-34.848h17.664L180.843 256h-12.432zm-5.184-14.352a642.416 642.416 0 00-3.744-10.08l-1.152-3.12c-1.12 2.912-2.768 7.312-4.944 13.2h9.84zm41.297 14.832c-7.232 0-12.56-1.536-15.984-4.608-3.424-3.072-5.136-7.456-5.136-13.152 0-5.728 1.712-10.256 5.136-13.584 3.424-3.328 8.752-4.992 15.984-4.992 10.112 0 16.88 3.472 20.304 10.416-2.88.992-6.256 2.48-10.128 4.464-.928-1.792-2.4-3.12-4.416-3.984-1.984-.864-4.016-1.296-6.096-1.296-3.072 0-5.36.816-6.864 2.448-1.504 1.6-2.256 3.584-2.256 5.952 0 2.56.8 4.656 2.4 6.288 1.632 1.6 4.112 2.4 7.44 2.4 2.656 0 4.768-.432 6.336-1.296 1.568-.896 2.72-2.304 3.456-4.224 2.624 1.408 5.984 2.992 10.08 4.752-1.6 3.872-4.272 6.576-8.016 8.112-3.744 1.536-7.824 2.304-12.24 2.304zM105.278.55c-1.398.716-2.55 2.367-2.769 3.963-.247 1.816.795 3.879 2.495 4.897l1.234.77v4.127l-2.824 3.22a638.393 638.393 0 01-5.211 5.86L95.844 26l-.027 18.076v18.076l-1.371 6.135c-.768 3.385-2.167 10.043-3.154 14.802-.96 4.76-2.002 9.85-2.304 11.28-2.907 13.675-3.867 18.159-4.69 22.286a300.966 300.966 0 01-1.343 6.466c-2.496 11.858-2.277 10.069-1.948 15.93.138 2.888.275 9.932.275 15.627v10.4H67.679l-5.622 5.832c-3.072 3.192-6.006 6.273-6.527 6.879l-.905 1.045H34.413l-.302-1.128c-.357-1.348-1.947-3.164-3.236-3.714-2.414-.991-5.293-.083-6.802 2.146-1.645 2.449-1.37 5.475.631 7.401 1.426 1.376 2.167 1.706 3.922 1.733 1.92.028 3.84-1.018 4.717-2.586l.63-1.073 8.859-.083c4.854-.055 8.83-.027 8.83.055 0 .083-1.727 1.954-3.839 4.182-3.647 3.825-3.84 4.072-3.84 5.145v1.128h40.315v-10.455l14.48.055 14.454.083-.055 5.97-.082 5.998h30.935l5.594 2.641c3.045 1.459 6.994 3.329 8.722 4.155l3.153 1.513 4.526-.028c2.495-.027 5.238-.11 6.088-.192l1.563-.193.082-4.154.083-4.155 24.709-.082 24.738-.055.63 1.293a6.046 6.046 0 001.838 2.146c1.015.715 1.453.825 2.934.825s1.893-.11 2.935-.825c2.221-1.596 2.962-4.017 1.892-6.328-1.974-4.292-7.926-4.154-9.763.22l-.411 1.018h-49.639v-4.677h36.008l.96 1.128c.549.633 1.399 1.321 1.893 1.513 4.004 1.678 8.008-2.421 6.06-6.218-1.892-3.686-7.048-3.521-8.556.275l-.439 1.101h-35.926v-3.852h13.438v-26.963h-13.438V84.878l-4.388-4.402-4.388-4.402V72.69l1.179-.578c2.797-1.348 4.415-3.934 4.415-7.043.028-3.33-1.563-5.778-4.607-7.181-1.399-.633-1.865-.716-3.593-.606-1.508.11-2.303.303-3.236.853-3.428 2.009-4.854 5.97-3.483 9.602.741 2.009 1.92 3.357 3.702 4.237l1.509.716v5.86l-3.483 3.439-3.511 3.439-.137-6.245-.137-6.246-2.797-2.09-2.825-2.064V53.706l-19.472-19.562-19.471-19.534v-2.366c0-1.788.082-2.339.356-2.339.713 0 2.578-1.596 3.045-2.614.603-1.238.63-3.384.082-4.457-1.317-2.503-4.635-3.576-7.186-2.283zm3.401 2.23c.878.302 1.673 1.43 1.673 2.42 0 .303-.329.908-.713 1.376-.603.715-.905.853-1.92.853-1.645 0-2.578-.88-2.578-2.421 0-1.376.796-2.174 2.496-2.504.082 0 .549.11 1.042.275zm18.786 32.685l18.101 18.13.027 6.659c.027 3.631-.027 6.658-.11 6.713-.082.055-2.194-1.376-4.689-3.192-4.8-3.466-5.047-3.659-8.913-6.438-3.648-2.64-5.293-3.824-7.158-5.117-.905-.66-2.798-1.98-4.169-2.971l-2.496-1.789-.027-2.999V41.49l1.234-1.1c1.673-1.486 2.386-2.944 2.386-4.898 0-3.384-2.633-6.053-5.951-6.053-3.373 0-5.869 2.614-5.896 6.136 0 2.008.658 3.384 2.331 4.787l1.234 1.018v6.988l-1.893 1.678c-1.042.936-2.029 1.679-2.194 1.679-.219 0-.301-4.733-.301-17.196 0-9.464.082-17.195.219-17.195.11 0 8.337 8.171 18.265 18.13zm-24.682 22.753c-1.92 1.87-3.51 3.411-3.565 3.411-.055 0-.11-7.896-.11-17.553V26.523l2.77-3.164c1.508-1.706 3.099-3.44 3.483-3.797l.74-.66.082 17.966.055 17.966-3.455 3.384zM117.071 32.3c2.167.908 2.715 4.017 1.042 5.722-.96.963-2.797 1.293-3.921.716-.933-.523-1.92-2.064-1.92-3.082 0-1.293.85-2.723 1.92-3.246 1.179-.606 1.645-.606 2.879-.11zm-3.757 82.236l-.082 64.325-14.398.055-14.398.055-.083-5.861-.055-5.832h24.683V53.403l1.179-1.073c2.112-1.98 2.797-2.504 3.017-2.283.11.11.164 29.136.137 64.49zm-7.076-3.797v54.338h-21.94v-31.501l2.853-13.619a8697.228 8697.228 0 015.238-24.9c3.647-17.443 4.8-22.835 5.485-26.274 1.206-5.97.96-5.475 4.497-9.107 1.756-1.788 3.346-3.247 3.538-3.274.247 0 .329 11.033.329 54.338zm58.004-50.734c2.468.633 4.086 3.412 3.593 6.135-.713 3.797-5.677 5.365-8.475 2.697-1.179-1.1-1.563-2.064-1.563-3.797 0-2.559 1.454-4.485 3.84-5.09 1.069-.275 1.316-.275 2.605.055zm-3.456 69.855l.055 49.248h-7.158V86.941l3.182-3.164c1.755-1.733 3.345-3.164 3.537-3.164.275 0 .357 10.345.384 49.248zm-10.448 49.111c-.055.027-.549.137-1.097.22l-1.043.165V92.334l1.043-1.073 1.014-1.046.083 44.351c.027 24.404.027 44.378 0 44.406zm-4.745-41.38v42.205l2.468.138 2.469.137.082 6.796c.027 4.319-.028 6.823-.192 6.823-.165 0-1.591-.605-3.209-1.376l-2.934-1.375h-26.246v-9.63h19.965l.192-3.521c.11-1.926.137-5.118.028-7.071-.11-1.981-.028-7.043.137-11.28.274-6.053.274-8.915 0-13.344-.192-3.109-.439-14.004-.576-24.211-.192-16.481-.165-18.654.219-19.259.631-1.046 7.021-7.429 7.323-7.319.192.055.274 14.389.274 42.287zm39.629 29.824v11.143h-11.518v-22.285h11.518v11.142zm-103.94 5.778v5.915H69.516c-6.5 0-11.847-.11-11.93-.22-.082-.137 2.304-2.779 5.266-5.915l5.403-5.668h6.527l6.5-.027v5.915zm-50.736 2.201c2.139 1.101 2.989 3.797 1.947 6.025-1.59 3.247-5.924 3.329-7.597.11-.576-1.128-.494-3.411.165-4.512 1.152-1.843 3.62-2.586 5.485-1.623zm130.268 14.142v9.079l-1.015-.44c-.576-.22-2.194-.963-3.565-1.624l-2.551-1.21v-14.857h7.131v9.052zm-79.587-3.907l.082 4.209H64.28c-11.272 0-17.004-.082-17.004-.275 0-.165 1.755-2.091 3.894-4.264l3.867-3.99 13.054.055 13.055.083.082 4.182zm135.204-3.054c.357.248.851.88 1.07 1.431.357.88.384 1.155.055 2.118-1.097 3.137-5.43 3.026-6.28-.165-.796-2.916 2.55-5.09 5.155-3.384zm14.7 6.823c2.359 1.788 1.783 5.283-1.042 6.356-3.017 1.155-6.116-1.624-5.128-4.623.822-2.503 4.004-3.411 6.17-1.733z" fill="#fff"/><path d="M3.954 185.284c-1.178.415-2.848 2.103-3.45 3.486-1.726 4.012 1.204 8.633 5.477 8.633 2.41 0 4.41-1.328 5.396-3.597l.493-1.107 12.189.056 12.216.083.082 4.095.082 4.067 54.698-.055 54.699-.083.082-1.052.082-1.024H38.603v-8.577H11.815l-.164-.913c-.22-1.245-1.917-3.182-3.287-3.818-1.232-.554-3.122-.637-4.41-.194zm4.218 2.103c2.794 2.075 2.602 6.502-.328 7.913-2.438 1.162-5.204-.166-5.944-2.85-.329-1.217-.329-1.328 0-2.545.767-2.767 4.136-4.123 6.272-2.518z" fill="#fff"/></svg>